<mxfile host="app.diagrams.net" modified="2024-03-05T02:29:04.374Z" agent="Mozilla/5.0 (Windows NT 10.0; Win64; x64) AppleWebKit/537.36 (KHTML, like Gecko) Chrome/122.0.0.0 Safari/537.36" etag="Bsw6Rj-GOM5T_uln_O5U" version="24.0.1" type="github">
  <diagram name="第 1 页" id="3tZ21pMMZ9bJWXgG2pwM">
    <mxGraphModel dx="989" dy="545" grid="1" gridSize="10" guides="1" tooltips="1" connect="1" arrows="1" fold="1" page="1" pageScale="1" pageWidth="827" pageHeight="1169" math="0" shadow="0">
      <root>
        <mxCell id="0" />
        <mxCell id="1" parent="0" />
        <mxCell id="r7-GNezHvX29lqFy12Uu-1" value="" style="rounded=1;whiteSpace=wrap;html=1;strokeColor=#4D4D4D;fillColor=none;glass=0;shadow=0;textShadow=0;sketch=1;curveFitting=1;jiggle=2;fontStyle=1" parent="1" vertex="1">
          <mxGeometry x="131" y="120" width="400" height="320" as="geometry" />
        </mxCell>
        <mxCell id="r7-GNezHvX29lqFy12Uu-2" value="AI辅助生成" style="rounded=1;whiteSpace=wrap;html=1;strokeColor=#9673a6;fillColor=#e1d5e7;glass=0;shadow=0;textShadow=0;sketch=1;curveFitting=1;jiggle=2;fontStyle=0" parent="1" vertex="1">
          <mxGeometry x="131" y="120" width="400" height="80" as="geometry" />
        </mxCell>
        <mxCell id="r7-GNezHvX29lqFy12Uu-3" value="可视化编程" style="rounded=1;whiteSpace=wrap;html=1;strokeColor=#b85450;fillColor=#f8cecc;glass=0;shadow=0;textShadow=0;sketch=1;curveFitting=1;jiggle=2;fontStyle=0" parent="1" vertex="1">
          <mxGeometry x="131" y="200" width="400" height="80" as="geometry" />
        </mxCell>
        <mxCell id="r7-GNezHvX29lqFy12Uu-4" value="数据驱动视图" style="rounded=1;whiteSpace=wrap;html=1;strokeColor=#82b366;fillColor=#d5e8d4;glass=0;shadow=0;textShadow=0;sketch=1;curveFitting=1;jiggle=2;fontStyle=0" parent="1" vertex="1">
          <mxGeometry x="131" y="280" width="400" height="80" as="geometry" />
        </mxCell>
        <mxCell id="r7-GNezHvX29lqFy12Uu-5" value="统一开发平台、技术选型、编码规范" style="rounded=1;whiteSpace=wrap;html=1;strokeColor=#6c8ebf;fillColor=#dae8fc;glass=0;shadow=0;textShadow=0;sketch=1;curveFitting=1;jiggle=2;fontStyle=0" parent="1" vertex="1">
          <mxGeometry x="131" y="360" width="400" height="80" as="geometry" />
        </mxCell>
        <mxCell id="r7-GNezHvX29lqFy12Uu-6" value="标准化" style="rounded=1;whiteSpace=wrap;html=1;strokeColor=#6c8ebf;fillColor=#dae8fc;glass=0;shadow=0;textShadow=0;sketch=1;curveFitting=1;jiggle=2;fontStyle=1" parent="1" vertex="1">
          <mxGeometry x="131" y="360" width="49" height="80" as="geometry" />
        </mxCell>
        <mxCell id="r7-GNezHvX29lqFy12Uu-7" value="配置化" style="rounded=1;whiteSpace=wrap;html=1;strokeColor=#82b366;fillColor=#d5e8d4;glass=0;shadow=0;textShadow=0;sketch=1;curveFitting=1;jiggle=2;fontStyle=1" parent="1" vertex="1">
          <mxGeometry x="131" y="280" width="49" height="80" as="geometry" />
        </mxCell>
        <mxCell id="r7-GNezHvX29lqFy12Uu-8" value="可视化" style="rounded=1;whiteSpace=wrap;html=1;strokeColor=#b85450;fillColor=#f8cecc;glass=0;shadow=0;textShadow=0;sketch=1;curveFitting=1;jiggle=2;fontStyle=1" parent="1" vertex="1">
          <mxGeometry x="131" y="200" width="49" height="80" as="geometry" />
        </mxCell>
        <mxCell id="r7-GNezHvX29lqFy12Uu-9" value="智慧化" style="rounded=1;whiteSpace=wrap;html=1;strokeColor=#9673a6;fillColor=#e1d5e7;glass=0;shadow=0;textShadow=0;sketch=1;curveFitting=1;jiggle=2;fontStyle=1" parent="1" vertex="1">
          <mxGeometry x="131" y="120" width="49" height="80" as="geometry" />
        </mxCell>
      </root>
    </mxGraphModel>
  </diagram>
</mxfile>
